<svg width="35" height="33" viewBox="0 0 35 33" fill="none" xmlns="http://www.w3.org/2000/svg">
<path d="M30.5939 14.2075C32.1374 14.9243 32.1374 17.1186 30.5939 17.8354L5.39898 29.5357C3.66012 30.3432 1.89131 28.478 2.78984 26.7844L8.00271 16.9588C8.31371 16.3726 8.31371 15.6703 8.00271 15.0841L2.78984 5.2585C1.89131 3.56489 3.66011 1.69972 5.39897 2.50722L30.5939 14.2075Z" fill="#D9D9D9"/>
<path d="M7 16.0059C7 15.4536 7.44772 15.0059 8 15.0059H17C17.5523 15.0059 18 15.4536 18 16.0059V16.0059V16.0059C18 16.5581 17.5523 17.0059 17 17.0059H8C7.44771 17.0059 7 16.5581 7 16.0059V16.0059Z" fill="white"/>
</svg>
